<svg width="499" height="118" xmlns="http://www.w3.org/2000/svg" xmlns:xlink="http://www.w3.org/1999/xlink"><defs><path d="M0 59.002C0 26.418 26.864 0 60 0c33.136 0 60 26.418 60 59.002C120 91.582 93.136 118 60 118 26.864 118 0 91.582 0 59.002z" id="a"/><path d="M79.465 38.44C91.36 38.44 101 47.87 101 59.5c0 11.63-9.64 21.063-21.535 21.063H64.074V24c4.415 0 7.996 3.503 7.996 7.824V72.74h7.395c7.465 0 13.538-5.941 13.538-13.239 0-7.298-6.073-13.235-13.538-13.235H76.39V38.44h3.075zM21 59.496c0-11.63 9.64-21.06 21.535-21.06h15.391V95c-4.419 0-8-3.503-8-7.824V46.26h-7.391c-7.465 0-13.538 5.938-13.538 13.235 0 7.298 6.073 13.24 13.538 13.24h3.075v7.824h-3.075C30.64 80.56 21 71.127 21 59.496z" id="b"/></defs><g fill="none" fill-rule="evenodd"><use fill="#2CA01C" xlink:href="#a"/><use fill="#FFF" xlink:href="#b"/><path d="M179.737 84.336c8.556 0 14.835-3.657 18.63-8.832l-5.451-3.726c-2.898 4.209-7.659 6.486-13.11 6.486-11.247 0-18.354-8.694-18.354-19.665 0-10.695 7.245-19.596 18.561-19.596 5.037 0 9.798 2.415 12.144 5.727l5.382-4.14c-3.588-4.968-10.833-7.59-17.526-7.59C165.178 33 154 43.35 154 58.599c0 15.042 10.764 25.737 25.737 25.737zm40.71-.345c10.005 0 17.664-7.245 17.664-17.319 0-10.074-7.659-17.181-17.664-17.181-10.005 0-17.595 7.107-17.595 17.181 0 10.074 7.59 17.319 17.595 17.319zm0-5.451c-6.969 0-10.902-5.658-10.902-11.868s3.933-11.799 10.902-11.799c7.038 0 10.902 5.589 10.902 11.799 0 6.21-3.864 11.868-10.902 11.868zm33.12 4.554V65.706c0-6.486 3.588-10.764 8.349-10.764 5.175 0 6.9 3.588 6.9 8.694v19.458h6.486V65.43c0-5.106 2.346-10.488 8.28-10.488 5.658 0 7.245 4.692 7.245 10.005v18.147h6.486V62.808c0-7.314-3.795-13.317-12.213-13.317-4.623 0-8.901 2.346-11.109 6.555-2.001-4.623-5.796-6.555-10.143-6.555-4.968 0-8.763 2.829-10.419 6.279h-.207c0-1.38-.138-3.726-.276-5.382h-6.141c.207 2.139.276 5.313.276 7.038v25.668h6.486zm61.203 0V65.706c0-6.486 3.588-10.764 8.349-10.764 5.175 0 6.9 3.588 6.9 8.694v19.458h6.486V65.43c0-5.106 2.346-10.488 8.28-10.488 5.658 0 7.245 4.692 7.245 10.005v18.147h6.486V62.808c0-7.314-3.795-13.317-12.213-13.317-4.623 0-8.901 2.346-11.109 6.555-2.001-4.623-5.796-6.555-10.143-6.555-4.968 0-8.763 2.829-10.419 6.279h-.207c0-1.38-.138-3.726-.276-5.382h-6.141c.207 2.139.276 5.313.276 7.038v25.668h6.486zm69.828.897c5.796 0 10.557-2.139 14.076-6.693l-4.554-3.657c-1.863 2.76-5.106 4.968-9.522 4.968-5.727 0-10.419-4.347-10.626-9.936h25.944c.069-.759.069-1.518.069-2.208 0-10.419-6.072-16.974-15.732-16.974-9.591 0-16.905 7.107-16.905 17.319 0 10.281 7.314 17.181 17.25 17.181zm8.832-20.148h-19.458c.414-5.106 4.692-9.246 10.281-9.246 6.003 0 9.039 4.071 9.177 9.246zm22.08 19.251V65.913c0-5.451 2.967-10.488 9.177-10.488 1.035 0 2.139.138 2.967.345l.276-6.003c-.759-.207-1.656-.276-2.553-.276-4.416 0-8.211 2.622-10.005 6.417h-.207c0-1.38-.138-3.864-.276-5.52h-6.141c.207 2.139.276 5.313.276 7.038v25.668h6.486zm33.948.897c5.244 0 9.453-1.932 12.213-5.106l-4.347-3.933c-1.725 2.208-4.554 3.588-7.866 3.588-6.831 0-10.764-5.589-10.764-11.799 0-6.279 3.933-11.799 10.695-11.799 3.105 0 6.141 1.587 7.521 3.726l4.692-3.795c-2.691-3.519-7.659-5.382-12.282-5.382-10.005 0-17.457 6.969-17.457 17.25 0 10.419 7.521 17.25 17.595 17.25zm33.741 0c5.796 0 10.557-2.139 14.076-6.693l-4.554-3.657c-1.863 2.76-5.106 4.968-9.522 4.968-5.727 0-10.419-4.347-10.626-9.936h25.944c.069-.759.069-1.518.069-2.208 0-10.419-6.072-16.974-15.732-16.974-9.591 0-16.905 7.107-16.905 17.319 0 10.281 7.314 17.181 17.25 17.181zm8.832-20.148h-19.458c.414-5.106 4.692-9.246 10.281-9.246 6.003 0 9.039 4.071 9.177 9.246z" fill="#000" fill-rule="nonzero"/></g></svg>