<svg width="120" height="118" xmlns="http://www.w3.org/2000/svg" xmlns:xlink="http://www.w3.org/1999/xlink"><defs><path d="M0 59.002C0 26.418 26.864 0 60 0c33.136 0 60 26.418 60 59.002C120 91.582 93.136 118 60 118 26.864 118 0 91.582 0 59.002z" id="a"/><path d="M79.465 38.44C91.36 38.44 101 47.87 101 59.5c0 11.63-9.64 21.063-21.535 21.063H64.074V24c4.415 0 7.996 3.503 7.996 7.824V72.74h7.395c7.465 0 13.538-5.941 13.538-13.239 0-7.298-6.073-13.235-13.538-13.235H76.39V38.44h3.075zM21 59.496c0-11.63 9.64-21.06 21.535-21.06h15.391V95c-4.419 0-8-3.503-8-7.824V46.26h-7.391c-7.465 0-13.538 5.938-13.538 13.235 0 7.298 6.073 13.24 13.538 13.24h3.075v7.824h-3.075C30.64 80.56 21 71.127 21 59.496z" id="b"/></defs><g fill="none" fill-rule="evenodd"><use fill="#2CA01C" xlink:href="#a"/><use fill="#FFF" xlink:href="#b"/></g></svg>
